<svg width="36" height="36" viewBox="0 0 36 36" fill="none" xmlns="http://www.w3.org/2000/svg">
<path d="M11.4403 2.93311H23.7603C28.4537 2.93311 32.267 6.74645 32.267 11.4398V23.7598C32.267 26.016 31.3708 28.1797 29.7755 29.775C28.1802 31.3703 26.0164 32.2665 23.7603 32.2665H11.4403C6.74694 32.2665 2.93359 28.4532 2.93359 23.7598V11.4398C2.93359 9.18369 3.82983 7.01997 5.42515 5.42466C7.02046 3.82934 9.18417 2.93311 11.4403 2.93311ZM11.147 5.86645C9.74661 5.86645 8.40361 6.42273 7.41342 7.41293C6.42322 8.40313 5.86694 9.74612 5.86694 11.1465V24.0532C5.86694 26.9719 8.22828 29.3332 11.147 29.3332H24.0537C25.454 29.3332 26.797 28.7769 27.7872 27.7867C28.7774 26.7965 29.3337 25.4535 29.3337 24.0532V11.1465C29.3337 8.22779 26.9723 5.86645 24.0537 5.86645H11.147ZM25.3003 8.06646C25.7866 8.06646 26.2529 8.25961 26.5967 8.60343C26.9405 8.94725 27.1337 9.41356 27.1337 9.8998C27.1337 10.386 26.9405 10.8523 26.5967 11.1962C26.2529 11.54 25.7866 11.7331 25.3003 11.7331C24.8141 11.7331 24.3478 11.54 24.004 11.1962C23.6602 10.8523 23.467 10.386 23.467 9.8998C23.467 9.41356 23.6602 8.94725 24.004 8.60343C24.3478 8.25961 24.8141 8.06646 25.3003 8.06646ZM17.6003 10.2665C19.5452 10.2665 21.4105 11.0391 22.7858 12.4144C24.1611 13.7896 24.9337 15.6549 24.9337 17.5998C24.9337 19.5448 24.1611 21.41 22.7858 22.7853C21.4105 24.1606 19.5452 24.9332 17.6003 24.9332C15.6554 24.9332 13.7901 24.1606 12.4148 22.7853C11.0396 21.41 10.267 19.5448 10.267 17.5998C10.267 15.6549 11.0396 13.7896 12.4148 12.4144C13.7901 11.0391 15.6554 10.2665 17.6003 10.2665ZM17.6003 13.1998C16.4334 13.1998 15.3142 13.6634 14.489 14.4885C13.6639 15.3137 13.2003 16.4329 13.2003 17.5998C13.2003 18.7668 13.6639 19.8859 14.489 20.7111C15.3142 21.5363 16.4334 21.9998 17.6003 21.9998C18.7673 21.9998 19.8864 21.5363 20.7116 20.7111C21.5368 19.8859 22.0003 18.7668 22.0003 17.5998C22.0003 16.4329 21.5368 15.3137 20.7116 14.4885C19.8864 13.6634 18.7673 13.1998 17.6003 13.1998Z" fill="white"/>
</svg>
