<svg width="36" height="36" viewBox="0 0 36 36" fill="none" xmlns="http://www.w3.org/2000/svg">
<path d="M14.667 22.0002L22.279 17.6002L14.667 13.2002V22.0002ZM31.6217 10.5162C31.8124 11.2055 31.9444 12.1295 32.0324 13.3028C32.135 14.4762 32.179 15.4882 32.179 16.3682L32.267 17.6002C32.267 20.8122 32.0324 23.1736 31.6217 24.6842C31.255 26.0042 30.4044 26.8549 29.0844 27.2216C28.395 27.4122 27.1337 27.5442 25.1977 27.6322C23.291 27.7349 21.5457 27.7789 19.9323 27.7789L17.6003 27.8669C11.455 27.8669 7.62694 27.6322 6.11627 27.2216C4.79627 26.8549 3.9456 26.0042 3.57893 24.6842C3.38826 23.9949 3.25626 23.0709 3.16826 21.8975C3.06559 20.7242 3.02159 19.7122 3.02159 18.8322L2.93359 17.6002C2.93359 14.3882 3.16826 12.0268 3.57893 10.5162C3.9456 9.19617 4.79627 8.3455 6.11627 7.97883C6.80561 7.78816 8.06695 7.65616 10.003 7.56816C11.9096 7.4655 13.655 7.4215 15.2683 7.4215L17.6003 7.3335C23.7457 7.3335 27.5737 7.56816 29.0844 7.97883C30.4044 8.3455 31.255 9.19617 31.6217 10.5162Z" fill="white"/>
</svg>
